<?xml version="1.0" standalone="no"?>
<!DOCTYPE svg PUBLIC "-//W3C//DTD SVG 20010904//EN"
 "http://www.w3.org/TR/2001/REC-SVG-20010904/DTD/svg10.dtd">
<svg version="1.0" xmlns="http://www.w3.org/2000/svg"
 width="700.000000pt" height="700.000000pt" viewBox="0 0 700.000000 700.000000"
 preserveAspectRatio="xMidYMid meet">
<metadata>
Created by potrace 1.11, written by Peter Selinger 2001-2013
</metadata>
<g transform="translate(0.000000,700.000000) scale(0.100000,-0.100000)"
fill="#000000" stroke="none">
<path d="M2348 6207 l-1278 -639 0 -1057 0 -1056 208 0 c186 -1 259 -4 396
-21 87 -11 301 -56 396 -84 439 -131 686 -343 738 -635 3 -16 5 -505 5 -1085
0 -1085 0 -1092 -37 -1180 -5 -13 45 -15 419 -14 233 0 428 3 432 7 7 8 11
6339 3 6378 -5 24 -43 6 -1282 -614z"/>
<path d="M3799 6843 c-1 -5 -2 -104 -3 -220 l-2 -213 24 0 c14 0 81 -12 151
-26 69 -14 137 -28 151 -30 14 -3 104 -21 200 -40 96 -20 186 -38 200 -40 14
-2 90 -18 170 -34 80 -16 157 -32 173 -35 64 -12 89 -17 227 -45 80 -16 156
-31 170 -34 14 -2 104 -20 200 -40 236 -47 231 -46 265 -52 17 -3 62 -12 100
-21 39 -8 81 -17 95 -19 273 -52 786 -158 821 -169 88 -29 152 -118 155 -216
5 -128 -94 -239 -221 -245 -27 -1 -102 9 -165 22 -63 13 -128 27 -145 29 -16
3 -84 17 -150 30 -66 13 -131 26 -145 29 -14 2 -83 16 -155 31 -71 15 -141 29
-155 31 -14 2 -56 11 -95 19 -38 8 -81 16 -95 19 -14 2 -106 21 -205 41 -99
20 -191 39 -205 41 -14 3 -239 48 -500 100 -261 53 -488 98 -505 101 -16 3
-102 20 -190 38 -88 18 -162 31 -165 30 -3 -2 -5 -61 -5 -132 0 -121 1 -128
20 -129 11 -1 43 -5 70 -9 28 -4 59 -9 70 -11 11 -1 47 -7 80 -13 33 -6 76
-13 95 -16 19 -3 46 -7 60 -10 14 -2 43 -7 65 -10 22 -3 47 -7 55 -10 8 -2 35
-6 60 -9 25 -3 56 -8 70 -11 14 -3 39 -7 55 -9 17 -2 100 -15 185 -30 85 -14
252 -41 370 -60 383 -63 824 -134 860 -140 19 -3 105 -17 190 -31 85 -14 171
-28 190 -31 19 -3 46 -7 60 -9 14 -3 43 -7 65 -10 22 -4 47 -8 55 -10 8 -2 35
-7 60 -10 128 -17 233 -45 265 -70 73 -55 103 -115 100 -200 -2 -95 -50 -170
-134 -212 -39 -19 -123 -23 -201 -10 -25 4 -58 9 -75 12 -16 3 -43 7 -60 10
-54 9 -149 24 -190 30 -23 3 -52 8 -65 10 -14 3 -81 14 -150 25 -69 12 -136
23 -150 25 -44 7 -344 56 -380 61 -19 3 -42 7 -50 9 -8 2 -35 7 -60 10 -43 6
-127 20 -179 30 -13 2 -49 7 -80 11 -31 3 -59 8 -62 10 -4 2 -38 8 -75 14 -38
5 -79 12 -90 14 -12 2 -39 7 -60 10 -22 3 -50 8 -64 11 -14 3 -41 7 -60 9 -19
3 -62 10 -95 15 -33 5 -76 12 -95 15 -28 5 -164 27 -310 51 -14 2 -68 11 -120
20 -52 9 -113 19 -135 22 -21 2 -42 6 -45 8 -3 2 -31 6 -61 10 l-56 6 1 -105
c0 -69 3 -105 10 -104 10 2 107 -9 151 -17 11 -2 43 -7 70 -10 28 -3 57 -8 65
-10 8 -2 40 -7 70 -10 30 -4 57 -8 60 -10 3 -1 36 -6 75 -10 38 -4 72 -8 75
-10 3 -1 28 -6 55 -9 50 -7 66 -9 140 -20 22 -4 58 -9 79 -11 22 -3 51 -7 65
-10 14 -2 44 -6 66 -9 22 -4 132 -20 245 -36 113 -17 220 -33 237 -35 18 -2
48 -6 65 -9 18 -3 49 -8 68 -10 62 -8 134 -18 155 -22 11 -3 52 -9 90 -14 39
-6 88 -13 110 -16 22 -3 51 -7 65 -9 14 -2 106 -15 205 -30 99 -14 196 -28
215 -30 19 -3 46 -7 60 -10 14 -2 43 -7 65 -10 22 -3 51 -7 65 -10 14 -2 48
-7 75 -10 28 -3 64 -8 80 -10 17 -3 41 -7 55 -9 77 -12 108 -20 140 -36 137
-70 170 -266 63 -374 -78 -78 -128 -86 -338 -56 -82 11 -166 23 -185 26 -19 2
-46 6 -60 9 -14 2 -45 7 -70 10 -25 3 -63 8 -85 12 -22 3 -47 7 -55 8 -51 7
-249 36 -266 39 -12 2 -45 7 -75 11 -30 3 -61 8 -69 10 -8 2 -37 6 -65 10 -27
3 -57 8 -65 10 -8 2 -37 6 -65 10 -27 3 -77 10 -110 15 -33 5 -82 12 -110 15
-27 4 -57 8 -65 10 -8 2 -35 7 -60 10 -25 3 -63 8 -85 11 -22 3 -51 7 -65 9
-14 2 -56 8 -95 14 -91 14 -142 21 -184 27 -19 2 -46 6 -60 9 -14 2 -48 7 -76
11 -27 3 -58 8 -69 10 -10 2 -44 6 -75 10 -31 3 -58 8 -61 9 -3 2 -30 6 -60 9
-30 4 -66 9 -80 11 -31 6 -62 10 -165 25 -44 6 -91 13 -105 16 -14 2 -46 7
-71 10 l-46 6 0 -119 0 -119 116 -12 c64 -7 132 -15 151 -17 19 -3 58 -7 85
-10 28 -3 84 -10 125 -15 84 -10 148 -18 218 -25 63 -7 130 -16 150 -20 10 -1
49 -6 87 -9 39 -4 84 -9 100 -11 17 -2 55 -7 85 -10 30 -3 69 -8 85 -10 37 -5
115 -15 175 -21 25 -2 61 -6 80 -9 19 -2 60 -7 90 -10 30 -4 66 -8 80 -10 14
-2 50 -6 80 -10 30 -3 71 -8 90 -10 90 -12 189 -23 260 -30 25 -3 61 -7 80
-10 19 -2 60 -7 90 -10 30 -3 66 -8 80 -10 23 -3 50 -7 170 -20 25 -3 61 -7
80 -10 19 -2 58 -7 85 -10 28 -3 66 -7 85 -10 19 -2 60 -7 90 -10 88 -10 110
-15 144 -29 190 -79 190 -353 0 -437 -51 -23 -91 -25 -214 -10 -113 14 -180
22 -305 35 -33 4 -74 9 -91 11 -16 2 -58 7 -91 10 -34 4 -70 8 -80 10 -10 2
-47 6 -83 10 -36 4 -76 8 -89 11 -14 2 -54 6 -90 10 -36 3 -74 8 -84 10 -10 2
-48 6 -85 10 -36 3 -74 7 -84 9 -9 2 -48 7 -85 10 -67 6 -104 11 -153 20 -14
2 -55 7 -92 10 -37 3 -77 8 -90 10 -13 2 -50 6 -83 10 -33 4 -73 8 -90 10 -16
2 -51 7 -77 10 -101 11 -146 16 -218 25 -41 5 -104 12 -140 15 -36 3 -72 8
-80 10 -8 2 -42 7 -75 10 -33 3 -71 7 -85 10 -14 2 -52 7 -85 10 -33 3 -73 8
-90 10 -62 8 -122 15 -171 20 l-50 5 0 -1667 0 -1668 1600 1 1601 0 3 2886 2
2886 -27 6 c-16 3 -44 8 -63 11 -19 3 -44 9 -55 12 -11 3 -29 7 -40 9 -11 1
-45 8 -75 14 -30 6 -66 13 -80 16 -14 3 -135 27 -270 54 -135 27 -256 51 -270
54 -14 2 -104 20 -200 40 -96 19 -186 37 -200 40 -14 2 -59 12 -100 21 -41 9
-91 18 -110 21 -19 3 -62 11 -95 19 -33 7 -80 16 -104 20 -23 3 -54 10 -67 16
-14 5 -28 8 -32 7 -6 -1 -38 4 -107 19 -11 2 -31 6 -45 9 -14 3 -137 28 -275
56 -137 28 -259 52 -270 54 -11 1 -87 17 -170 34 -82 17 -163 33 -180 36 -37
6 -312 62 -342 69 -13 3 -24 2 -24 -2z m2773 -3794 c62 -44 85 -85 92 -166 5
-66 -43 -146 -109 -180 -17 -9 -57 -16 -92 -17 -53 -1 -67 3 -105 29 -100 71
-120 198 -44 297 7 10 33 29 57 43 38 22 53 25 106 22 43 -3 71 -11 95 -28z"/>
<path d="M1117 3135 c-1 -1 -45 -5 -97 -8 -392 -24 -771 -147 -925 -302 -91
-90 -90 -85 -90 -440 l0 -310 25 -40 c53 -86 119 -140 246 -204 121 -60 201
-88 369 -125 190 -42 345 -58 573 -60 310 -3 587 35 822 114 213 72 363 172
421 281 24 44 24 47 24 349 0 350 1 344 -97 440 -153 149 -452 249 -878 295
-58 6 -387 14 -393 10z m413 -137 c14 -3 54 -9 90 -13 36 -4 74 -9 85 -11 277
-51 488 -133 592 -227 75 -70 84 -130 25 -192 -45 -48 -73 -68 -147 -107 -163
-85 -424 -150 -705 -174 -131 -12 -464 -5 -545 10 -11 2 -47 7 -80 11 -281 31
-604 158 -689 269 -86 113 33 233 334 337 83 29 271 72 360 83 25 3 70 8 100
12 30 3 57 8 58 9 6 5 494 -2 522 -7z"/>
<path d="M1 1604 c0 -240 1 -253 23 -300 87 -188 432 -337 901 -390 126 -14
423 -19 530 -9 28 2 75 7 105 9 252 23 526 99 700 195 78 43 174 132 202 189
22 45 23 57 25 297 1 198 -1 245 -10 225 -43 -92 -131 -172 -262 -237 -115
-58 -313 -121 -435 -138 -24 -4 -47 -8 -51 -10 -3 -2 -34 -7 -70 -11 -35 -3
-67 -8 -70 -10 -12 -7 -236 -18 -359 -17 -455 0 -879 105 -1090 268 -74 58
-107 101 -133 175 -3 8 -6 -98 -6 -236z"/>
<path d="M2480 1097 c0 -43 -81 -145 -156 -198 -130 -90 -396 -183 -609 -213
-22 -3 -56 -8 -75 -11 -19 -3 -53 -8 -75 -11 -68 -10 -526 -13 -595 -4 -36 5
-85 11 -110 13 -38 4 -112 16 -195 32 -160 30 -362 106 -473 178 -81 53 -124
96 -163 162 l-30 50 3 -255 3 -255 27 -46 c54 -92 170 -175 340 -244 75 -30
234 -77 298 -89 14 -2 52 -9 85 -15 146 -26 279 -36 485 -36 169 0 364 10 393
20 7 3 30 6 52 9 226 26 527 132 660 234 64 48 122 126 133 177 9 40 15 515 6
515 -2 0 -4 -6 -4 -13z"/>
</g>
</svg>
